<svg id="Ebene_2" data-name="Ebene 2" xmlns="http://www.w3.org/2000/svg" viewBox="0 0 171.86 163.98"><path d="M429.06,277.07c1.27-.19,1.61.61,2,1.66-.26.95-.7,1.86-1.91,1.94a1.83,1.83,0,0,1-2.08-1.76C426.85,277.41,427.93,277.24,429.06,277.07Z" transform="translate(-343.19 -257.44)" style="fill:#fff"/><path d="M345.08,300.43c3.55,4.91,8.23,8.89,16.69,9.5s16,1.23,20.13.69,25.62-7.37,30.13-7.53c.88,0,1.78,0,2.65-.06l-.07.3c-.05.68-.1,1.36-.14,2s-.06,1.38-.08,2.07c0,.27,0,.54,0,.82-11.95,6.3-32.84,17.5-35.26,20-3.4,3.54-14.34,7.06-19.27,14.36s.49,12.05,2.93,12.82,4.71-.36,7.15-.53,3.19,1.91,8.66-1.64,24.18-16.6,29.14-28c3-6.86,5.85-10.47,8.14-12.67,1.68,15.66,2.64,31.67,4.63,47.2,1.38,10.73,2.8,21.46,4.4,32.63L412,420.91c3.86-.61,6.86-2.77,10-4.35s5.7-2,8.77.25c2.34,1.74,5.24,2.73,9,4.62-4.51-10.32-8.09-19.87-11.74-29.92,1.11-4.93,2-9.84,3-14.61.47-2.19.89-4.39,1.34-6.59a4.22,4.22,0,0,1-1.26-.27c-.46-.19-.65-1.05-1.06-1.77,1.29-1.4,1.62-1.69,2.73,0,.29-1.47.6-2.94.89-4.42l-1-1.81a12.9,12.9,0,0,1-2.51,1.52,10.17,10.17,0,0,1-2.72.17,7.35,7.35,0,0,1,1.07-2.39,2.71,2.71,0,0,1,2.17-.46,2.44,2.44,0,0,0,3.29-2.26c.2-1.53,1.38-3.43-.6-4.74l-.19,0,.11-.13-1.21-2.65-.11,3.51-2.24-2.22,3.81-4.52-1.84.34-.24-.58,2.69-1.69c-.71-.56-1.26-1-1.86-1.46s-1.27-.82-2.17-1.39c1.35-.68,2.54-1.35,3.8-1.86.18-.08.93.55,1,.88.11,1.86.08,3.74.09,5.61l1.64.42c-.32,1.37-.59,2.52-.87,3.68-.11-.13-.23-.25-.35-.38l-2.09,2.31,0,.06.05,0a3.06,3.06,0,0,1,2.2.21q1.17-6.27,2.29-12.58a7,7,0,0,1-1.93-1.44c-1.78-2-2.85-2-3.81,1.28-1.43-1.94-2.49-3.37-3.74-5.08a20,20,0,0,0,2-.1c1-.16,1.94-.4,2.9-.6a11.33,11.33,0,0,1-1.76-2.28,5.44,5.44,0,0,1-.51-3.09,11.08,11.08,0,0,1,1.61-2.94l2.38,1.88.58-.43c-.42-2.13-.84-4.25-1.27-6.38l-1.14.17-.11,3.55-.91,0c-.19-2.07-.37-4.15-.63-7,2.44,2.7,4.79,3.4,7.44,1.68a23.39,23.39,0,0,0-1.9,2.86c2.36,2.06-.21,3.11-.81,4.67,4.58.22-1.19,3.43,1.26,4.38l-4.2.63L438,335.7c-1.52,1.38-.8,2.75.13,4q2.2-12.63,4.19-25.38c2.1,2.28,4.61,5.83,7.16,11.92,4.83,11.5,23.37,24.79,28.8,28.39s6.2,1.53,8.65,1.74,4.69,1.34,7.14.6,7.93-5.41,3.08-12.77-15.73-11-19.1-14.6c-2.33-2.49-22.29-13.52-34.28-20q-.17-3.07-.42-6.14c.9,0,1.83,0,2.73.09,4.52.21,25.92,7.3,30.06,7.88s11.66.07,20.13-.44,13.19-4.44,16.79-9.29,1.94-9.22-2.56-12.82-11.67.31-16.74,1.78-1.7.75-7.55,1.47-29.56,6.21-34.08,7.31a33,33,0,0,1-9.14.48c-.3-2.67-.66-5.32-1.17-8-2.26-11.78-5.88-23.05-12.91-33-.34-.49-.75-.93-1.23-1.52-6.79,13.34-10,27.56-12.38,42a33,33,0,0,1-9.28-.57c-4.5-1.15-28.18-6.94-34-7.73s-2.45,0-7.52-1.55-12.19-5.52-16.73-2S341.54,295.52,345.08,300.43Zm94.7-9.24-.43.93-6-1.65.15-.77,5.78.18Zm-7.66,7,4.55.14c-.84,1.83-1.59,3.44-2.45,5.29l-1.33-.34C433.14,301.45,435.58,299.65,432.12,298.22Zm9.34-1.92c-5.11.52-5.23.43-4-3.41ZM438,310.19l1.09,2-5-2.34,2.39-1.4-3.38-1c.53-.4,1.14-1.2,1.59-1.12a28.32,28.32,0,0,1,4,1.32c.19-.72.36-1.34.59-2.23l1.79,1.59Zm-7.59,8.05c1.83-2.31,5.13-2.06,7.3,1.56a29,29,0,0,1-3.81-.34A30.48,30.48,0,0,1,430.43,318.24Zm-4.4,30,1.1-.42c.56,1.76,1.11,3.53,1.82,5.82C424.79,352.82,427.91,349.56,426,348.25Zm-1.65-69.31c0-2.32,2.44-5.32,4.48-5.44,1.81-.1,4.73,3.14,4.74,5.27a4.74,4.74,0,0,1-4.59,4.58A4.19,4.19,0,0,1,424.38,278.94Z" transform="translate(-343.19 -257.44)" style="fill:#fff"/></svg>