<svg id="Ebene_2" data-name="Ebene 2" xmlns="http://www.w3.org/2000/svg" viewBox="0 0 92.95 199.93"><path d="M438.84,337.7c0,7.42.05,14.84,0,22.25a12.16,12.16,0,0,1-5.25,10.23c-4.68,3.35-9.72,3.77-14.75,1a11.63,11.63,0,0,1-6.3-8.69,32.16,32.16,0,0,1-.33-4.38q0-21.53,0-43.05c0-1.78.32-2.1,2.08-2.1.78,0,1.56,0,2.34,0a1.43,1.43,0,0,1,1.57,1.58c0,6.34-.07,12.68-.09,19,0,2.87.05,5.74.06,8.61,0,2.62,0,5.24,0,7.86,0,2.32,0,4.64.06,7,0,1.1-.11,2.21,0,3.29a7,7,0,0,0,8.58,6.11,6.71,6.71,0,0,0,5.5-6.51c.08-3.39,0-6.79,0-10.18V316.57c0-.64-.05-1.29,0-1.94a1.49,1.49,0,0,1,1.68-1.66h3c1.45,0,1.93.48,1.93,1.91q0,5.64,0,11.27Zm-12.1,32.14.79.45-.12.4h1.52c-1.1-.4.25-1-.14-1.45-.53.45-1.06.79-1.7.22,0,0-.19.14-.29.21l-.31-.83-.32.58-1.3-1.2-.38.5-.61-1.05c-.34.48-.57.81-.79,1.14-1,.07-.59,1-.85,1.32l1.19.57,1.12-.93-1.49-1c.79-.09,1.47,0,1.63,1,0,.16.26.32.44.43.45.3.91.57,1.54.95Zm-10.19-3.79c.38-.74.95-.67,1.84.12l-.18-1.34-.17.3-2.11-.11.16-.23-.5-.74-.28.19Zm-1.1-4.82.16-.13c-.14-.46-.29-.93-.42-1.39-.06-.24-.1-.48-.15-.71-.27.18-.91-.15-.81.58,0,.12-.12.25-.13.26Zm-.19.8-.95-.32.13.89.69-.42.94,1.37c.1-.46.17-.71.21-1,.06-.45-1.09-1.36-1.38-1.12Zm1.05-10.78c-.22-1.05-.38-1.91-.59-2.76,0-.12-.26-.18-.39-.27a1.56,1.56,0,0,0-.12.55c0,.47.13.94.2,1.43Zm1.52,17,.25.15.67-1-1.2-.78-.2.81H418Zm-4-22.62c1.56-.48,1.75-.87,1.21-2Zm-.33-5c1.05-.32,2.2,0,3-1l-2.29.4,0-.22Zm22.8,12.61h-.17l-.27,1.9-.53.28,1,.59Zm-15.45,14.43.11-.4-1.84-.61L419,367C419.79,366.63,419.81,368.42,420.81,367.64Zm9.05-.15-.22.18c.18.23.47.44.5.68.09.81.06.82,1.19.86Zm-15.75-3.16.5,1.67h.29l.28-.91-.61.28.36-1.54Zm21.09-12.47c-.39-.24-.61-.46-.86-.49s-.36.23-.54.36a4.15,4.15,0,0,0,.72.67C434.58,352.44,434.85,352.14,435.2,351.86Zm-19.38-5-.29-1.61-.91,1.25ZM436.05,336c-.19,0-.42-.06-.46,0a2.55,2.55,0,0,0-.23.62c.19.05.44.2.57.14.45-.23.39-1.19-.16-1.59Zm-22,7.43.2.16.81-.89-.54-.69-.28,0Zm.22-20.13-.09.19.65.58-.52.68.14.11,1.14-1Zm.14-3.87c.79.65,1.35.58,1.7-.19ZM435,327.18l.51.24.64-1.63-.28-.13Z" transform="translate(-378.72 -212.09)" style="fill:#616d60"/><path d="M379.31,342.45c0-5.61,0-11.21,0-16.81-.05-8.42,7-14.44,15.42-13.32a13.2,13.2,0,0,1,11,11,16.23,16.23,0,0,1,.22,2.41c0,3.82,0,7.64,0,11.46a1.83,1.83,0,0,1-2.15,2.08c-.84,0-1.69,0-2.53,0-1.36,0-1.82-.43-1.83-1.8,0-3.53,0-7.06-.06-10.59a15.55,15.55,0,0,0-.52-4.09,6.72,6.72,0,0,0-6.46-4.51,7,7,0,0,0-6.93,5.55,7.47,7.47,0,0,0-.13,1.64q0,13.35-.06,26.71c0,2.62,0,5.23,0,7.85a6.61,6.61,0,0,0,5.49,6.33c3.26.6,5.64-.25,7.54-3.06a6.9,6.9,0,0,0,1-3,33.64,33.64,0,0,0,0-5,1.62,1.62,0,0,0-.91-1.16,6.51,6.51,0,0,0-2.29-.18,1.73,1.73,0,0,1-2-1.76c0-.88,0-1.75,0-2.63a1.72,1.72,0,0,1,1.86-1.88c2.69,0,5.37,0,8.06,0,1.38,0,1.92.57,1.92,2,0,3.44.09,6.87,0,10.3a12.27,12.27,0,0,1-5.38,10.23,17.48,17.48,0,0,1-4.73,2.32,13.93,13.93,0,0,1-3.94.16,9,9,0,0,1-2.26-.05,13.41,13.41,0,0,1-10.31-13.46C379.33,353.59,379.31,348,379.31,342.45Zm3.71,4c-.09-.23-.2-.45-.27-.69a1.88,1.88,0,0,1-.14-.8c0-.08.43-.1.66-.16,0,0,.07-.09.16-.22l-.62-.25c1.1-.89,1.13-1.09.27-2l-.6,1.6-.52-.48-.23.08c.68,1-.62,2.09,0,3.16.32-1.2.84-.46,1.27-.21-.18,0-.41,0-.54.08-.35.24-.66.54-1.14.95l-.41,1,1-.15-.27.71,1.44.4.38-1.15-.27-.11-.53.34-.12-.11.6-1-.62.05Zm-.88,16.2.76-1.25.37-1.64-.26,0-.18.89-.22-.23-1.12.66c.26.51-.27,1.36.67,1.6l.21,1.61L381,365l.13.21,1.63-.39v1.86c1-.13,1.53.51,1.88,1.47l.27-.68.3.14-.59,1.45.21.08,1-1.95,1.61-.37c-.68-.34-1.51.3-1.5-.35a1.33,1.33,0,0,1-1.09.43c-.26,0-.49-.39-.73-.6l-.86-.75c.24-.82.5-1.67.72-2.54,0-.15.53-.39,0-.5-.15,0-.34.14-.52.21l-.4-.64-.11,1.22Zm.12-10,1.75-.91-.54-.77,1-.15v-.19h-1.19l.78-.88c-.27,0-.55-.12-.71,0s-.33.42-.49.65l-.65-.75-.1,1.13-.71-.82-.23.06.11,1.62.22,0,.43-.64.17.06-.41,1.5-1-.71a4.13,4.13,0,0,0,.22,1c1.06,0,1.49.77,1.84,1.6,0,0,.12,0,0,0l.8-1.41ZM388,367.41l-1.63.3-.29,1.65.61-.77,1.12.67L388,369l-1-.67,1.66-.31.29-1-1-.57Zm-7-14a10.25,10.25,0,0,0-.12,1c0,.48.07,1,.11,1.59a1.32,1.32,0,0,0,.51.2c.2,0,.42-.17.63-.26l-.23.91.89-.43Zm16.93,14.24.73-.15a2.38,2.38,0,0,0,.08.71c.11.28.31.73.48.73a12.24,12.24,0,0,0,1.91-.25l-1.29-.94-.19.66c-.12-1-1-1.26-1.6-1.85Zm5-3.8c.17-.24.3-.65.54-.73,1.48-.48.25-.91,0-1.46.42,1-.44.59-.73.68l.29.6-1.73-.31-.06.2ZM401.17,368c0-1.52,1.37-1.88,2.13-2.66l-2,.82-.3,1-.65-.5-.23.95Zm-16.88-8.49c-.6-.7-1.09-1.34-1.65-1.92a1.17,1.17,0,0,0-.76-.2.53.53,0,0,0-.39.33.59.59,0,0,0,.28.44C382.55,358.62,383.36,359,384.29,359.53Zm16.32,6.11c-1.21-1.28.46-1,.62-1.6L400.1,363l-.2,0,.38,1.1-.19-.12-.5,1.65Zm-10.74,4.68L389,370a2.06,2.06,0,0,0,.58-.27,1.57,1.57,0,0,0,.23-.56c-.18-.06-.42-.22-.55-.15a7.49,7.49,0,0,0-1,.66l.79,1.41Zm6.48-.28,1.75.43v-1.56l-1.68.12.89.54ZM381,337.37c.33.73.54,1.21.75,1.69s.58.7,1.14.17l-1.06-.77.77-.42Zm11.7,31c.34.28.61.54.91.74a2.89,2.89,0,0,0,.71.27c.08-.25.3-.58.21-.73a1.1,1.1,0,0,0-.73-.42A4.85,4.85,0,0,0,392.73,368.34ZM382,339.93c-.19.09-.65.17-.68.33a10.45,10.45,0,0,0,0,1.69l.64-.52-.06,1.19.43-.05a13.77,13.77,0,0,1-.34-1.41A7.93,7.93,0,0,1,382,339.93Zm2.58,24.75-.63,1,.12.09.71-.5.1.89.88-1.38ZM402.35,333c-.9-.86.31-1.38.21-2.28l-1.41,2ZM382,334.62l.17.13.89-.64-.3-1.09-.94.38.67.28Zm11.39,35.68-1,.94c1.25-.58,0,1,.75.88l.5-1.48ZM382.71,330l-1.77.7C381.68,331.39,381.9,331.33,382.71,330Zm19.49,21.82c1.19.65,1.2-.7,1.93-.63l-.14-.3Zm-.33,6.07,1.65.28C403,357.45,402.56,357.11,401.87,357.93Zm-4.13-6,.06.13a13.37,13.37,0,0,0,1.8-.38c.13-.05.08-.61.11-.93,0,0-.1,0-.21-.08v.63Z" transform="translate(-378.72 -212.09)" style="fill:#616d60"/><path d="M458.12,313h11.19c1.32,0,1.76.43,1.77,1.73,0,.91,0,1.81,0,2.72,0,1.23-.64,1.8-1.89,1.8-2.13,0-4.27,0-6.4,0a1.55,1.55,0,0,0-1.67,1.7c0,2.43-.05,4.85-.05,7.28,0,2.81,0,5.63,0,8.44,0,4.46,0,8.92,0,13.38,0,1.64.09,3.28.1,4.91s-.06,3.23-.06,4.84c0,2.74,0,5.48,0,8.22a28.83,28.83,0,0,1,0,2.94,1.43,1.43,0,0,1-1.52,1.23c-1,.05-2,0-3,0a1.65,1.65,0,0,1-1.62-1.58c0-2.48-.15-5,.06-7.45.07-.81-.07-1.55-.06-2.32,0-5,.08-9.91.08-14.87,0-3.26-.12-6.52-.12-9.77,0-4.89.06-9.77.08-14.65,0-2-.3-2.3-2.3-2.3H447c-1.4,0-2-.63-2-2,0-.78,0-1.55,0-2.33,0-1.34.55-1.89,1.87-1.9Zm-1.33,48.28-.31,1.42.3.59,1.23.38.23-.86h.26l.13,1.14.83-.24c-.79-.6,0-.88.19-1.23l-1.81-.55-.3.79h-.23Zm1.88,5.15L457,364.62v1.82h.3l-.08-.73.27,0,.16,1.13.43-.2.13.75a9.58,9.58,0,0,0,1.09-.88c.06-.06-.17-.38-.37-.8Zm-.33-13.46.63-1.73a1.85,1.85,0,0,0-.52.57c-.12.21-.22.43-.39.75l-.15-1c-.43,1.34-.17,1.76,1,2l.08.82.61-1-.42-.75Zm-.79,14.63c-.06.7-.16,1.31-.15,1.93,0,.12.58.37.61.34.25-.33,1-.57.26-1.17A5,5,0,0,1,457.55,367.56Zm1.35-30.79c-.79-.46-.91-.34-1.46,1.43h-.62l0,.23,1.56-.18C457.36,337.07,459.16,337.52,458.9,336.77Zm-1.08-10.27c.05-1.19.49-.79,1.06-.13l.25-1.77C458,324.84,457.49,325.48,457.82,326.5Zm.18,23.12-1,1.71c.69.13.69.13,1.66-1.71Zm.61,5.18c-.51.23-.83.39-1.16.5a2.08,2.08,0,0,1-.56,0c0,.21,0,.49.12.59a1,1,0,0,0,.62.08c.12,0,.23-.17.35-.19s.6,0,.6,0A8.66,8.66,0,0,0,458.61,354.8Zm.14-8.84-1-.89-.51.43.51,1.26Zm-1.13,13.13c.31-1.15-.76-.31-1-.64l-.39.33c.14.1.26.28.41.3A8.23,8.23,0,0,0,457.62,359.09Z" transform="translate(-378.72 -212.09)" style="fill:#616d60"/><path d="M455.55,395.78c0-3,0-6,0-9a7.09,7.09,0,0,1,14.17-.17c0,2.12,0,4.24,0,6.37,0,.79-.35,1.13-1.13,1.11h-1.4c-.67,0-.92-.25-.92-1,0-1.9,0-3.8,0-5.7a9.84,9.84,0,0,0-.32-2.23,3.86,3.86,0,0,0-3.11-2.31,3.92,3.92,0,0,0-4.1,4.06c.09,4.12,0,8.25,0,12.38,0,1.94-.05,3.89,0,5.83a3.56,3.56,0,0,0,3.15,3.43,3.6,3.6,0,0,0,3.82-1.69,5,5,0,0,0,.58-2.85c0-.43,0-.86,0-1.29a.7.7,0,0,0-.63-.8,5.37,5.37,0,0,0-1.13,0,.9.9,0,0,1-1.06-.92v-1.45a.91.91,0,0,1,1-1l4.2,0c.83,0,1.08.26,1.08,1.09,0,1.81,0,3.63,0,5.44a6.5,6.5,0,0,1-2.89,5.49,9.09,9.09,0,0,1-2.48,1.22,8.49,8.49,0,0,1-2.15.1,6.76,6.76,0,0,1-.9,0,6,6,0,0,1-3-1.36,6.36,6.36,0,0,1-2.31-3,8.24,8.24,0,0,1-.46-2.3C455.52,402.06,455.55,398.92,455.55,395.78Zm11.16,13.58-.38.19-.21-.52-.66-.39c.08.19.12.42.19.43.33.07.34.23.23.49,0,0,.06.17.1.18l.76.1a1.11,1.11,0,0,1,0,.13l.33-.26-.41-.37h.44l.56-1-.37-.07-.2.65-.37-.26Zm-9.35-11.51.34,0-.55-.58a1.12,1.12,0,0,1,.26-.33c.07,0,.21,0,.31,0v-.11l-.36-.09c.63-.47.65-.6.17-1.1l-.3.86-.3-.29a3.91,3.91,0,0,1-.12,1c-.13.35-.15.62.1.74.11-.39.11-.39.46-.17l-.64.56c-.11,0-.09.17-.12.29s-.11.17-.16.26l.54-.05-.19.37.81.19.17-.59-.15-.06-.25.19-.08-.07.34-.5-.29,0Zm.27,10.21.56-1.57-.49,0-.2-.28v.82l-.31-.52-.18,0,.16.72-.27.49.11.08.36-.3v1.11c.53-.08.82.26,1,.81l.16-.51.23.63L459,409l.95-.19c-.35-.24-.84.21-1-.35a1.7,1.7,0,0,1-.43.38c-.06,0-.23-.18-.34-.28Zm0-7.93.34-.44-.08-.11-.56.36-.28-.32-.26,1.57-.43-.32c-.25.27-.2.46.14.49a.71.71,0,0,1,.71.72c0,.12,0,.27,0,.39s.15.19.31.38l-.12-1.09.46-.33-.9-.26c.87-.16,1.05-.37.79-.87l.46-.08v-.12ZM460.2,409a4.15,4.15,0,0,0-.94.29c-.1.07,0,.42,0,.68l.26-.31.42.32-.52.53.15.14.65-.73-.54-.38.87-.16c.31-.33.06-.6-.33-.89Zm4.93,2.11,0-.13-.34-.43.73.09v-.8l-.84.06,0,.09.38.12a2,2,0,0,0-.27.22c-.13.2-.25.41-.42.7Zm-8-5.88c-.06.16-.09.36-.14.36-.51,0,0,.47-.26.59.08.09.15.2.25.24s.15-.08.22-.15a2.66,2.66,0,0,0,.22-.24l.16-.53c0-.17.06-.34.08-.51l-.13,0-.09.48Zm11,1.9.73-.64-.35-.5c.13.46-.24.33-.43.35l.14.33-.9-.19-.05.09Zm-11.6-5.48h-.13a4.34,4.34,0,0,0,0,.51c0,.14.07.28.12.49l-.18.25,0,.14.79-.15Zm.07,2.24,1.54.95c-.19-.3-.44-.52-.63-.79S457.07,403.56,456.6,403.93Zm10.65,3.37-.64-.6-.11.06.25.55c-.46,0-.37.41-.32.75,0,.05.21.07.48.17C466.35,407.52,467.05,407.57,467.25,407.3Zm-9.93-13.1.11-.18-.53-.37.43-.25-.8-.3-.1.18C457,393.35,456.6,394.32,457.32,394.2Zm4,16.33a1.65,1.65,0,0,1-.43.08c-.06,0-.11-.1-.17-.16a1.51,1.51,0,0,1,.2-.17c.07,0,.18,0,.22-.09a.26.26,0,0,0,0-.22.44.44,0,0,0-.3,0,3.12,3.12,0,0,0-.49.31l.42.75Zm7.29-5.78c.44-.6-.22-.68-.41-1-.06-.08-.38,0-.58,0v.2l1.06.17-.46.38Zm-5.84,4.84a4,4,0,0,0,.46.4.51.51,0,0,0,.39.08.38.38,0,0,0,.09-.34.5.5,0,0,0-.34-.24A2.35,2.35,0,0,0,462.73,409.59Zm-.65.83.22.08.23-.71c-.22,0-.43-.05-.65-.05,0,0-.05.13-.08.21l.37,0Zm5.76-19.69c-.53-.46.17-.75.09-1.22l-.74,1.05Zm-5.07,20.38.1.51c-.15-.36.64-.67.16-1l-.41.48Zm-6.31-21.61,0,.22.88-.13-.14-.38Zm.79,1.59-.25.52.09.05.44-.34-.15-.58-.48.21Zm-.3,3.33-.42.24c.25.1-.12.7.42.59Zm1.28,13.2.34.67.39-.63Z" transform="translate(-378.72 -212.09)" style="fill:#616d60"/><path d="M405.91,380.05h1.87c.59,0,.83.17.93.75.44,2.53.86,5.07,1.29,7.6.36,2.07.73,4.14,1.08,6.22.57,3.34,1.12,6.69,1.69,10,.26,1.56.55,3.12.82,4.68.08.44.14.88.2,1.33a.8.8,0,0,1-.8.93c-.61,0-1.21,0-1.82,0s-.77-.44-.85-.9c-.27-1.5-.49-3-.74-4.49-.19-1.14-.38-2.28-.6-3.41-.14-.74-.56-1-1.3-.93s-1.47,0-2.21,0-1.2,0-1.81,0a.79.79,0,0,0-.8.68c-.25,1.3-.5,2.59-.73,3.9-.16.91-.27,1.83-.43,2.75a12.14,12.14,0,0,1-.39,1.81.9.9,0,0,1-.62.52,7.7,7.7,0,0,1-1.44,0c-.09,0-.17-.05-.25,0-.76.08-1.13-.32-1-1,.21-1.17.4-2.33.6-3.5.27-1.56.56-3.12.83-4.68s.51-3.06.77-4.58c.31-1.78.61-3.56.92-5.34q.56-3.21,1.1-6.42c.28-1.68.55-3.37.83-5.05a.87.87,0,0,1,1-.87Zm-5.52,26,.37-.53.21-.24-.36-.12.12-.95-.21,0-.09.71a1,1,0,0,1-.06.38c-.08.2-.25.36-.32.56-.11.36,0,.42.33.22l-.06.41-.36-.1.38.94c.1-.14.19-.27.29-.39A.53.53,0,0,0,400.39,406Zm6.65-5.77-.39.43.22.51c.13-.3-.05-.74.58-.63l0-.17-.38-.13-.28-1.1-.56.82-.09-.53-.23.35.45,1.42.11-.05-.08-.86.14.13Zm4.25,9.84a.7.7,0,0,0-.34.71c0,.07.15.12.34.26v-1l.6.13,0,.1.53-.2.05.32.41-.29a4.59,4.59,0,0,0-.48-.44c-.05,0-.18.06-.28.1v.05H412l0-.44-.7-.33-.08.26-.51-.24C410.93,409.52,411.11,409.8,411.29,410.09ZM400.24,408c.29.42.42,0,.57-.13s.18-.28.27-.43l-.12-.07-.48.2.08.12-.33.33-.32-.2.37-.19-.39-.34.13-.4a1.11,1.11,0,0,0-.28-.05c-.27.05-.81,1-.78,1.26a2.21,2.21,0,0,1-.13.58l.43-.1.08.69h-.15l-.1-.36c-.07.06-.21.13-.2.17.09.4.2.8.31,1.22l.22,0-.18.41.47.17-.2.35.13.07.39-.75c.18.25.37.54.57,0,.43.2.33-.29.6-.36l-.6-.47.51-.36-.05-.07-.29.08.66-1.09-.49-.31,0,.43-.66,0Zm7.17-9.25c.62,0,1-.39,1-.93-.35-2.3-.69-4.6-1-6.9-.22-1.43-.44-2.85-.68-4.28-.07-.38-.27-.71-.71-.7a.77.77,0,0,0-.82.7c-.38,2.47-.76,4.93-1.13,7.4-.18,1.21-.31,2.43-.56,3.62-.08.39-.06.64.24.81a1.86,1.86,0,0,0,.8.27C405.46,398.73,406.43,398.71,407.41,398.71Zm3.35,8.47c.48.36.48.41,0,.68.37.09.21.79.82.55l.07.78.81-.71-.11,0,.2-.6-.21-.48-.5.28-.09-.14.27-.33-.37-.43V408l-.14,0-.58-1.14.44-.15-.42-.39Zm-2.43-7.68c.1.29.19.55.29.79,0,.06.1.09.16.13s.11-.1.12-.15a1.24,1.24,0,0,0,0-.31c.62.23.06.66.25,1,.54-.7-.26-1.21-.27-1.83l-.08.46Zm2.36,6-.05.17-.59.41a1.23,1.23,0,0,0,.22.15,1.84,1.84,0,0,0,.29,0l-.16.44c.37,0,.51-.15.32-.5-.06-.1,0-.25,0-.38h.16l.13.44.38-.25Zm.1-.31.31-.24a4.6,4.6,0,0,1-.23-.69c-.07-.49-.36-.79-.72-.7C410.9,403.9,410.53,404.66,410.79,405.19Zm-9.61-9.73a2.35,2.35,0,0,0,.59.24c.06,0,.22-.18.22-.27a3.59,3.59,0,0,0-.16-.66Zm2.78,5.07.08.11c.07-.09.18-.16.21-.26.1-.33.17-.67.66-.57.09,0,.22-.09.44-.19h-1Zm-2.43-2.85-.16.7.93-.22Zm.71.81-.05-.08-1.09.59,0,.1h.51Zm.5-2.25-1.06-.3-.05.18.46,0-.12.49ZM401.25,400l-.18-.16.53.18.13-.73-.15-.11Zm9.46-.45-.56-.41.21,1Zm-7.36,0-.16.1.44.79.22-.34Z" transform="translate(-378.72 -212.09)" style="fill:#616d60"/><path d="M388.35,412a7.34,7.34,0,0,1-3.71-.81,5.68,5.68,0,0,1-2.63-2.54c-.48-1.06-.88-2.16-1.27-3.25-.22-.62,0-1.06.63-1.17a8.48,8.48,0,0,1,1.95-.08c.17,0,.42.28.46.47a6.13,6.13,0,0,0,2,3.71,3.54,3.54,0,0,0,2.24.81c2.1.06,4-2.19,4-4.09.07-2.85-1.32-4.83-3.37-6.53-.48-.4-.9-.85-1.35-1.28-1-1-2.11-1.88-3-2.94-1.24-1.45-2.57-2.91-2.95-4.88a9.6,9.6,0,0,1,.53-6.27,5.91,5.91,0,0,1,4.09-3.3,8.15,8.15,0,0,1,4.74.2,6.34,6.34,0,0,1,4.16,4.84.68.68,0,0,1-.58.92c-.56.14-1.12.24-1.68.33a.73.73,0,0,1-.8-.52c-.21-.47-.39-.95-.63-1.41a3.45,3.45,0,0,0-6.38.66,6.92,6.92,0,0,0,.74,5.68,18.06,18.06,0,0,0,4.44,4.66,17.85,17.85,0,0,1,4.22,5,8.25,8.25,0,0,1,.17,8.33A6.13,6.13,0,0,1,388.35,412Zm-2.46-18.55-.16-.12c-.09.18-.29.39-.26.54a1.2,1.2,0,0,0,1.51.95,4.77,4.77,0,0,1-.53.29c-.11.07-.16.21-.24.32a2.87,2.87,0,0,0,.44-.25,3.38,3.38,0,0,1,.59-.12l-.33-.59.45.09v-.06l.45.24.07-.11c-.2-.15-.52-.46-.57-.42-.44.33-.86-.05-1.29,0s-.47-.23-.29-.55C385.77,393.61,385.83,393.55,385.89,393.47Zm5.7,15.84.72-.06c0-.57.5-1.21-.31-1.67A1.44,1.44,0,0,1,391.59,409.31Zm-5.19,1.16.43-.14.08.43.52-.5c-.23-.16-.4-.38-.63-.44C386.32,409.69,386.61,410.25,386.4,410.47Zm-1.75-1.6-.93-.36.31,1.11Zm9.32-5.2h.2l0-.6a4.45,4.45,0,0,0-.82.3s.05.32.09.49a1.83,1.83,0,0,0,.13.24l.12,0-.11-.45.36-.26Zm-10.57,4.54.2-.29.17.31.62-.51-1.54-.09Zm10.23-1.44.14-.75-.17,0-.14.47-.32-.8-.22.62Zm-11.12-16.55-.1.07.69.95.43-.18Zm2.21,2.73.46.42-.12-1c-.3.25-.53.42-.73.62,0,0,0,.16.06.32Zm-2.47,14.86.24-.89c-.74.42-.3.84-.28,1.37l.51-.44ZM393,401.15c.11-.72.11-.72-.7-.83Zm.25,7.75a2.87,2.87,0,0,0-.16-.37,1.43,1.43,0,0,0-.25-.24,3.86,3.86,0,0,0-.25.64c0,.09.1.21.15.32l.11-.06-.13-.29ZM393,407l1.09.69-.18-.52.4-.17Zm-6.31,4.29c0-.3-.52-.71-.92-.7l.27.58Zm1.49-14.74.16,0,.61.67.16-.16-.8-1Zm2.09,12.4-.08.05c.12.14.37.31.34.4-.16.53.21.43.52.5a2,2,0,0,0-.26-.57A2.25,2.25,0,0,0,390.31,408.93Zm-8-3.18.44-.27c-.17-.74-.19-.76-.55-.53l.45.34-.6.24Zm-.45,1.27.62-.33-.27-.85Zm2.86,3.12,0,.5.4-.81-.26-.3-.48.67Zm3.06-.5a1.34,1.34,0,0,1,.07.39c0,.09-.12.17-.19.26l.35.12C388.62,410,388,409.85,387.8,409.64Zm6.07-4.39c-.4-.12-.68-.2-.95.13h.74l-.14.38.15.05Z" transform="translate(-378.72 -212.09)" style="fill:#616d60"/><path d="M435.13,411.43a2.83,2.83,0,0,1-.56.17c-.31,0-.63,0-.94,0-.67,0-1-.32-1.05-1,0-.95,0-1.9,0-2.85a1.43,1.43,0,0,1,.11-.39l1.71-4.23c.59-1.45,1.19-2.9,1.77-4.35.65-1.63,1.28-3.27,1.93-4.91l3.69-9.22a.9.9,0,0,0-.85-1.34c-1.77,0-3.53,0-5.29,0-.74,0-1.49,0-2.23,0a.9.9,0,0,1-.84-.89q0-.75,0-1.5a.84.84,0,0,1,.94-.91h11.06c.66,0,.93.27.94.94,0,.89,0,1.77,0,2.65a2.61,2.61,0,0,1-.16.91c-1.12,2.84-2.27,5.67-3.39,8.5-.72,1.8-1.41,3.6-2.13,5.39-1,2.51-2,5-3,7.53-.18.44-.38.88-.56,1.32s.35,1.13.83,1.13l5.36,0c.66,0,1.33,0,2,0,.84,0,1.09.24,1.09,1.06,0,.43,0,.87,0,1.3a.77.77,0,0,1-.81.89c-.54,0-1.08,0-1.61,0h-7.42A1.82,1.82,0,0,1,435.13,411.43Zm-1-2.43c-.22-.21-.35-.05-.52.09-.42.35,0,.67-.06,1.06l.65-.45.13.1-.23.67c.22-.24.35-.41.51-.56a1.39,1.39,0,0,1,.41-.27.77.77,0,0,0,.48-1l.54.22.16-.13a.8.8,0,0,1-.7-1c.06-.34-.52-.95.42-.95-.16-.59.25-1.12.14-1.74l.67-.73h-.89l-.11-.42c-.27.08-.66.08-.77.25-.25.41-.18,1-.68,1.29a.19.19,0,0,0,0,.18c.32.38-.1.43-.24.66l-.19-.4-.18.07a2.31,2.31,0,0,0,.39.82c.39.34.12.44-.11.67L435,407l.09-.46.16,0-.27,1.19-1.11-.17a.8.8,0,0,1,.2,1.18C434,408.81,434.08,408.92,434.09,409Zm4.66.35-.2.33-.23-.72c-.43.51-1,.79-1,1.5l.41-.06.18.48.51-1c.19.23.36.5.4.48a7.27,7.27,0,0,0,.83-.49Zm.92.63,0,.16.32.06v.09l-.49.21.13.4.55-.59-.08.45a1.46,1.46,0,0,1,.44-.12c.75.1.81.07,1.08-.71-.44.18-.94-.07-1.23.26Zm-3.42-.19a1.74,1.74,0,0,0-.68-.13c-.15,0-.24.32-.34.47l.3.21-.65.64h.91Zm7.86.84-.57-.89h-.43C443.06,410.43,443.06,410.43,444.11,410.63Zm-1.7-.43-1-1.34-.13.08c.11.18.23.36.33.54a2.78,2.78,0,0,1,.43,1.14h.08Zm-4.6.84-.95-.61-.07.11.35.68Zm-1.38-9.53c0,.21-.06.39-.09.56s0,.28-.07.42.31.09.34.05a.64.64,0,0,0,.15-.46A2.13,2.13,0,0,0,436.43,401.51Zm1-1.7-.61.12,0,.18c.7-.13.61.39.73.77C438,400.45,437.31,400.16,437.4,399.81Zm-.5,10-.16-.07c-.51.41-.53.51-.18.77Z" transform="translate(-378.72 -212.09)" style="fill:#616d60"/><path d="M425.41,409.84H425v-.15l.35-.1,0-.1-.43-.09-.89-.53-.09.33-.27-.51-.39.76c-.27-.28-.38-.9-1-.67l.08.39.46-.13-.06.68L422,409l-.28,1-.23-.45-.44.69.14-.35-.63-.37.62-.09.2-.79-.41.16-.08-.16a1.59,1.59,0,0,1,.58-.24c1.08,0,2.15,0,3.22,0l3.56,0c.71,0,1,.29,1,1,0,.43,0,.86,0,1.29a.9.9,0,0,1-.88.9H418.1a.81.81,0,0,1-.88-.82c0-1.48,0-3,0-4.49l.46.06c-.05-.11-.09-.23-.12-.23-.35,0-.35-.24-.34-.49,0-1,.05-2,.06-3,0-.3-.06-.6-.06-.89V381.18c0-.9.23-1.13,1.13-1.13h1.14c.82,0,1,.19,1,1v25.34a5.18,5.18,0,0,1-.07.65l-1.19-.22,0,.16.47.09-.07.37c.11,0,.2-.12.28-.11s.52,0,.55.13a5.86,5.86,0,0,1,.3,1.44c0,.16-.28.34-.43.51l-.14-.22c-.34.11-.34.11-.35.87l.3-.38.37.35-.54.48.1.15.49-.24-.28.46.42.16.2,0a.76.76,0,0,1,0-.16c0-.13,0-.27.05-.41l.39.36.79-.11v.05l.81-.21.46-.9,1.25.91.08-.53c.26-.27.66.36.74-.25.12.16.58.36.25.48s-.3.52-.56.75l.67.09,0-.13-.38-.44.65.07.18-.82ZM419,407.2l0,0-.1-.44.69-.68c-.15-.35-.65-.57-.14-1l.08.42.53-.29c-.7-.23,0-.58-.16-.93-.14.05-.26.14-.37.12a1.63,1.63,0,0,1-.45-.2h.27l-.48-.43.1-.09.72.3-.38-.7-.26-.06.3-.84c-.33.13-.59.16-.72.31a6.14,6.14,0,0,0-.62.92l.2.39-.48-.22V406l1,.2-.41.43-.15-.31h-.09l-.07.66-.31-.36c.19.69.54,1.34.18,2l.65.25-.5.45.06.12.78-.21c-.07.39-.13.77-.22,1.14a.42.42,0,0,0,.43.55.4.4,0,0,0,.42-.54l-.57,0a2.79,2.79,0,0,1,1.51-1.66c-.78,0-.78,0-.8-.29h.65Zm-1.2-6.51v.13h1l-.55-.51.68-.07,0-.18-.6.05-.07-.11.58-.31c-.14-.37-.1-.68.43-.76l-.3.37.1.1.6-.69c-.58.05-.06-.43-.31-.68l-.24.65a.76.76,0,0,1,0-1.06l-.24-.46-.23.11c0,.43.08.86.07,1.28s0,.77-.2.87c-.51.29-.36.69-.33,1.11Zm9.21,8.73-.47-.28a1.48,1.48,0,0,0-.11.32c0,.1.05.27.12.3a.66.66,0,0,1,.53.44,2.45,2.45,0,0,0,.48.5l.15-.54.39.17-.21-1.07-.13.41-.68-.42Zm-8.61-6.89c.18-.08.33-.1.4-.19.41-.54-.47-.62-.34-1.06l-.74.19.21.72.32-.55c.08.18.17.35.23.53S418.45,402.34,418.41,402.53Zm.63-6,0-.12.29-.23-.1-.15a1.91,1.91,0,0,0-.43.36,1.45,1.45,0,0,0-.13.47,1.53,1.53,0,0,1,.42,0,1.26,1.26,0,0,1,.32.29c-.49-.48.52-.42.3-.72Zm.34,4,.28-.22-.09-.12-.67.41.08.13.85.13.05-.18Zm7.05,9.77-.16.08.44.77.5-.4C426.71,411.06,426.72,410.43,426.43,410.34Zm-6.95-17.41.09-1.18-.48.5Zm-1.24,2.87-.26.93.71-.63Zm1.21-1.67.42-.27-.08-.14-.68.26.29.59.12,0ZM423,411l.11.12.82-.31c-.23-.09-.42-.23-.56-.19S423.15,410.88,423,411Z" transform="translate(-378.72 -212.09)" style="fill:#616d60"/><path d="M452.21,395.91q0,7.33,0,14.66c0,.87-.3,1.14-1.17,1.07a9.87,9.87,0,0,0-1.09,0c-.69,0-1-.29-1-1V381.21c0-.9.22-1.13,1.12-1.13h1c1,0,1.2.19,1.2,1.17Zm-1.84,11.32-.28.06.13.64.06-.06.37.43c-.26-.05-.46-.06-.61.26-.06.13-.34.17-.51.25l.2.42.34-.09.12.57-.36-.18-.11.08.24.43.09-.05-.06.53.17.06.53-.86a2.39,2.39,0,0,0,.43.27,1.45,1.45,0,0,0,.47.05,1.13,1.13,0,0,0-.17-.42.45.45,0,0,0-.37-.09.43.43,0,0,1-.56-.41c0-.27-.23-.61.14-.83l.23-.46v.61l.4-.37-.64-.81.32.07,0-.1-.46-.31.33-.24.39-.23c-.23-.12-.43-.24-.65-.34,0,0-.16.09-.17.15C450.39,406.58,450.39,406.9,450.37,407.23Zm-.54-4.69a4.11,4.11,0,0,1,.31.5c-.42.35,0,.54.12.81-.8,0,.18.61-.25.76l.73.13-.84.38c.49.46-.4.88-.33,1.18a2.62,2.62,0,0,0,.68-.41c.32-.33.5-.32.65.24l.68-.85c-.15,0-.25,0-.35,0l-.5-.12a2,2,0,0,0,.32-.39.9.9,0,0,0,.1-.53,1.69,1.69,0,0,0-.26-.52l-.42.31-.1-.07.25-1.1.2,0v.62H451l.15-1.21C450.69,402.74,450.28,402.85,449.83,402.54Zm.89-1.87-.41-.26.59-.15c-.09-.07-.19-.22-.26-.21a5.15,5.15,0,0,0-.71.21l-.09-.39-.32.27.53.56-.21.34Zm.6,1.46c-.31-.41-.88-.38-1.28.23a5.86,5.86,0,0,0,.66,0A5.62,5.62,0,0,0,451.32,402.13Zm-.19-3.48h-.79l.4.93.23-.05C450.94,399.21,450.52,398.88,451.13,398.65Zm-1.61-.38c.89.12.91.1.72-.57Zm.32-.87.07.16,1-.25,0-.14h-1Zm1.54,10.88c.73-.12.2-.71.54-.92l-.19-.08Zm-1,2.88a2.59,2.59,0,0,0,.51-.05c.08,0,.11-.18.19-.31C450.83,410.48,450.82,410.48,450.41,411.16Z" transform="translate(-378.72 -212.09)" style="fill:#616d60"/><path d="M422,410.2l.29.55-.95-.3,0-.14Z" transform="translate(-378.72 -212.09)" style="fill:#616d60"/><path d="M434.71,408.42l.1.53.36,0-.71.78-.83-.19,0-.1.47-.2,0-.22.49.17-.13-.8Z" transform="translate(-378.72 -212.09)" style="fill:#616d60"/><path d="M434.85,405.67v-.44l.55.06c-.2.3-.75.55.06.82l-.21.11-.87-.55Z" transform="translate(-378.72 -212.09)" style="fill:#616d60"/><path d="M419.11,404.25c-.17.08-.33.15-.09.36.05.05,0,.19.05.29l-.15.05-.42-.75-.25.09.06-.79c.23,0,.52-.15.44.35,0,.11.23.27.36.4Z" transform="translate(-378.72 -212.09)" style="fill:#616d60"/><path d="M419.08,408l0,.27.58-.27.05.13c-.1.11-.19.24-.3.34s-.39.36-.47.32a.4.4,0,0,1-.1-.65.82.82,0,0,0,.11-.23Z" transform="translate(-378.72 -212.09)" style="fill:#616d60"/><path d="M419,407.2l.08.14-.73.88-.17-.1.51-1.16.33.26Z" transform="translate(-378.72 -212.09)" style="fill:#616d60"/><path d="M425.27,222.71c.69-.09.87.34,1.05.91-.14.51-.39,1-1,1a1,1,0,0,1-1.12-1C424.07,222.88,424.65,222.8,425.27,222.71Z" transform="translate(-378.72 -212.09)" style="fill:#616d60"/><path d="M379.72,234.88a11.33,11.33,0,0,0,9,5.23c4.57.38,8.64.75,10.88.48s13.91-3.84,16.34-3.9l1.44,0,0,.17-.09,1.1-.06,1.11c0,.15,0,.3,0,.45-6.5,3.34-17.86,9.28-19.19,10.63-1.85,1.9-7.79,3.74-10.5,7.66s.2,6.52,1.52,6.95,2.55-.17,3.87-.25,1.71,1.05,4.69-.83,13.17-8.85,15.92-15a20.3,20.3,0,0,1,4.47-6.81c.82,8.48,1.25,17.15,2.24,25.56.69,5.81,1.4,11.62,2.2,17.67l-7.12,15.34c2.09-.3,3.73-1.45,5.44-2.29s3.09-1.07,4.74.18a34.53,34.53,0,0,0,4.85,2.55c-2.38-5.6-4.27-10.79-6.19-16.24.63-2.66,1.12-5.31,1.7-7.89.26-1.18.5-2.37.76-3.56a2.05,2.05,0,0,1-.68-.15c-.26-.11-.35-.57-.57-1,.7-.76.89-.91,1.48,0l.51-2.38-.55-1a7.17,7.17,0,0,1-1.37.81,5.5,5.5,0,0,1-1.47.08,3.92,3.92,0,0,1,.59-1.29,1.46,1.46,0,0,1,1.18-.24,1.32,1.32,0,0,0,1.79-1.2c.12-.83.76-1.85-.3-2.57l-.1,0,.06-.07c-.15-.35-.31-.7-.64-1.44l-.08,1.89-1.2-1.21,2.09-2.42-1,.17-.13-.32,1.47-.89c-.38-.31-.68-.57-1-.8s-.68-.45-1.16-.77c.73-.36,1.38-.71,2.06-1,.1,0,.5.3.51.48,0,1,0,2,0,3l.88.23c-.18.74-.34,1.36-.49,2l-.19-.21-1.14,1.24v0l0,0a1.63,1.63,0,0,1,1.19.13q.67-3.39,1.31-6.79a3.82,3.82,0,0,1-1-.79c-.95-1.09-1.53-1.09-2.07.67l-2-2.77c.47,0,.78,0,1.08,0,.53-.09,1.05-.21,1.58-.31a5.9,5.9,0,0,1-1-1.25,3.06,3.06,0,0,1-.26-1.67,6,6,0,0,1,.9-1.58l1.27,1,.32-.23c-.22-1.15-.44-2.31-.65-3.46l-.62.09-.08,1.92h-.49c-.09-1.12-.18-2.25-.31-3.78,1.31,1.48,2.58,1.87,4,1a12.43,12.43,0,0,0-1,1.53c1.26,1.13-.14,1.68-.47,2.52,2.48.15-.66,1.85.66,2.38l-2.28.32,2.55,1.28c-.83.74-.44,1.49,0,2.17.84-4.55,1.65-9.11,2.41-13.71a21.73,21.73,0,0,1,3.81,6.49c2.54,6.25,12.5,13.54,15.41,15.52s3.35.86,4.67,1,2.53.75,3.86.36,4.32-2.88,1.74-6.89-8.45-6-10.25-8c-1.25-1.36-12-7.44-18.43-11-.05-1.11-.11-2.22-.19-3.32.49,0,1,0,1.48.06,2.43.14,14,4.09,16.21,4.43s6.3.11,10.89-.12a11.33,11.33,0,0,0,9.13-4.94c2-2.62,1.1-5-1.31-6.94s-6.31.1-9.07.87-.92.39-4.08.75-16,3.19-18.48,3.76a17.77,17.77,0,0,1-4.95.21c-.14-1.44-.33-2.88-.58-4.31-1.16-6.38-3.06-12.5-6.8-17.91-.19-.26-.41-.5-.66-.82-3.75,7.17-5.59,14.85-6.93,22.67a18.21,18.21,0,0,1-5-.36c-2.43-.65-15.2-3.91-18.35-4.37s-1.32,0-4.06-.89-6.55-3-9-1.16S377.83,232.2,379.72,234.88ZM431,230.41l-.24.5-3.24-.93.09-.41,3.12.13Zm-4.18,3.76,2.46.1-1.36,2.85-.72-.19C427.34,235.92,428.67,235,426.81,234.17Zm5.06-1c-2.77.25-2.83.2-2.16-1.87Zm-1.94,7.5.58,1.11-2.68-1.3,1.3-.74-1.82-.56c.29-.21.62-.64.86-.6a15.58,15.58,0,0,1,2.18.74c.11-.38.2-.72.33-1.2l1,.87ZM425.78,245c1-1.24,2.79-1.09,3.94.88a16.31,16.31,0,0,1-2.06-.2A17.35,17.35,0,0,1,425.78,245Zm-2.54,16.21.59-.23.95,3.16C422.54,263.66,424.24,261.91,423.24,261.2Zm-.51-37.5a3.3,3.3,0,0,1,2.45-2.92c1-.05,2.54,1.72,2.54,2.88a2.57,2.57,0,0,1-2.51,2.45A2.26,2.26,0,0,1,422.73,223.7Z" transform="translate(-378.72 -212.09)" style="fill:#616d60"/></svg>