<svg id="Ebene_2" data-name="Ebene 2" xmlns="http://www.w3.org/2000/svg" viewBox="0 0 367.23 72.07"><path d="M383.46,332.34c0,7.26.06,14.52,0,21.78a11.92,11.92,0,0,1-5.14,10c-4.59,3.28-9.52,3.7-14.44,1a11.4,11.4,0,0,1-6.17-8.51,32.47,32.47,0,0,1-.32-4.29q0-21.06,0-42.13c0-1.74.31-2.05,2-2.06.76,0,1.52,0,2.28,0a1.4,1.4,0,0,1,1.54,1.55c0,6.2-.07,12.41-.09,18.61,0,2.81.06,5.62.06,8.43,0,2.56,0,5.13,0,7.69,0,2.27,0,4.55.05,6.82,0,1.07-.11,2.15,0,3.22a6.85,6.85,0,0,0,8.39,6,6.58,6.58,0,0,0,5.39-6.37c.07-3.32,0-6.64,0-10q0-16.21,0-32.43c0-.64-.05-1.27,0-1.9a1.47,1.47,0,0,1,1.64-1.63h3c1.42,0,1.89.46,1.89,1.86v22.35ZM371.62,363.8l.77.43-.12.4h1.49c-1.08-.4.25-1-.14-1.42-.51.44-1,.77-1.65.21,0,0-.19.14-.29.21l-.31-.82-.3.58-1.29-1.19-.36.5-.6-1-.78,1.12c-1,.06-.57.94-.83,1.29l1.17.56,1.1-.91-1.46-1c.77-.1,1.43,0,1.59.94,0,.16.26.31.43.42.44.29.9.55,1.51.92Zm-10-3.71c.36-.73.93-.66,1.8.11l-.18-1.31-.16.29-2.08-.1.17-.23-.5-.72-.27.19Zm-1.08-4.73.15-.12c-.13-.46-.28-.91-.4-1.36-.07-.23-.1-.47-.15-.7-.26.18-.9-.14-.8.58,0,.11-.11.24-.12.25Zm-.18.79-.94-.31.13.87.68-.41.91,1.34c.1-.45.17-.69.21-.94.06-.44-1.07-1.33-1.34-1.1Zm1-10.55c-.21-1-.37-1.87-.58-2.71,0-.11-.25-.17-.38-.26a2.19,2.19,0,0,0-.12.54c0,.46.13.92.2,1.4Zm1.49,16.65.25.15.65-.95-1.18-.76-.19.8h.63Zm-4-22.14c1.53-.47,1.72-.86,1.19-2Zm-.31-4.93c1-.32,2.15,0,2.91-1l-2.23.39,0-.21Zm22.31,12.34-.17,0-.27,1.86-.51.28.95.58Zm-15.13,14.12.12-.39-1.81-.6L364,361C364.81,360.65,364.84,362.4,365.81,361.64Zm8.86-.14-.21.17c.17.22.46.43.49.66.09.8.05.81,1.16.85Zm-15.41-3.1.49,1.63H360l.27-.89-.59.28.35-1.51Zm20.64-12.2c-.39-.24-.6-.46-.84-.49s-.35.23-.53.36a3.89,3.89,0,0,0,.7.65C379.29,346.76,379.56,346.47,379.9,346.2Zm-19-4.87-.28-1.57-.89,1.22Zm19.8-10.67c-.18,0-.41-.05-.45,0a2.48,2.48,0,0,0-.23.61c.19.05.43.2.56.13.44-.22.38-1.16-.16-1.55Zm-21.57,7.28.2.16.79-.88-.53-.67-.27,0Zm.22-19.71-.09.19.64.57-.51.66.13.11,1.11-1Zm.13-3.79c.78.64,1.33.57,1.67-.18Zm20.16,7.6.5.23.62-1.59-.27-.13Z" transform="translate(-233.45 -294.82)" style="fill:#1e1e1c"/><path d="M325.2,337c0-5.48,0-11,0-16.45,0-8.24,6.89-14.13,15.1-13A12.92,12.92,0,0,1,351,318.25a17,17,0,0,1,.21,2.36c0,3.74,0,7.48,0,11.22a1.8,1.8,0,0,1-2.1,2c-.83,0-1.65,0-2.48,0-1.33,0-1.78-.42-1.79-1.76,0-3.45,0-6.91-.06-10.36a15.42,15.42,0,0,0-.51-4,6.57,6.57,0,0,0-6.32-4.41,6.86,6.86,0,0,0-6.79,5.43,7.79,7.79,0,0,0-.12,1.6q0,13.08-.06,26.15c0,2.56,0,5.12,0,7.68a6.47,6.47,0,0,0,5.37,6.2c3.19.58,5.53-.25,7.38-3a6.59,6.59,0,0,0,.95-2.93,32.19,32.19,0,0,0,0-4.91,1.57,1.57,0,0,0-.89-1.14,6.46,6.46,0,0,0-2.24-.18,1.69,1.69,0,0,1-2-1.73c0-.85,0-1.71,0-2.56a1.68,1.68,0,0,1,1.81-1.85l7.89,0c1.35,0,1.88.56,1.88,1.94,0,3.36.09,6.72,0,10.08a12,12,0,0,1-5.26,10,17.24,17.24,0,0,1-4.64,2.27,14,14,0,0,1-3.85.16,8.56,8.56,0,0,1-2.21-.06,13.11,13.11,0,0,1-10.09-13.17C325.21,347.89,325.2,342.44,325.2,337Zm3.63,3.94c-.09-.22-.2-.44-.27-.67a2.18,2.18,0,0,1-.14-.78c0-.09.43-.11.65-.17,0,0,.07-.09.16-.21l-.61-.25c1.08-.87,1.11-1.06.26-2l-.58,1.56-.5-.47-.24.08c.67,1-.61,2.05.05,3.09.32-1.17.82-.45,1.25-.2-.18,0-.4,0-.54.08-.34.23-.64.53-1.11.93l-.4.94,1-.14-.26.68,1.4.4.37-1.13-.26-.11-.52.34-.11-.11.58-.94-.6.05ZM328,356.77l.74-1.22.36-1.61-.25,0-.18.87-.21-.23-1.1.65c.25.5-.27,1.33.65,1.56l.21,1.58-1.34.71.12.22,1.6-.39v1.82c1-.12,1.5.5,1.84,1.44l.27-.66.29.13L330.4,363l.2.08,1-1.91,1.57-.36c-.66-.33-1.48.29-1.46-.35a1.29,1.29,0,0,1-1.07.42c-.25,0-.48-.38-.71-.58l-.85-.73c.23-.8.49-1.64.71-2.49,0-.15.51-.39,0-.49-.15,0-.34.13-.51.21l-.39-.63-.11,1.2Zm.11-9.81,1.71-.89-.52-.76,1-.14V345h-1.16l.75-.87c-.26,0-.54-.11-.69,0s-.32.41-.48.64L328,344l-.09,1.11-.7-.81-.22.06.1,1.59.22,0,.42-.62.17.05-.4,1.47-1-.69a4.41,4.41,0,0,0,.21,1c1,0,1.46.75,1.81,1.56,0,0,.11,0,0,0l.78-1.38Zm5.64,14.45-1.6.3-.28,1.62.6-.76,1.1.66.15-.23-1-.65,1.63-.31.28-1-1-.56Zm-6.86-13.7a7.57,7.57,0,0,0-.11,1c0,.47.06.94.1,1.55a1.11,1.11,0,0,0,.5.2c.2,0,.41-.16.61-.25l-.22.89.87-.42Zm16.57,13.94.71-.15a3.19,3.19,0,0,0,.08.7c.11.27.31.71.48.72a11.68,11.68,0,0,0,1.86-.25l-1.26-.93-.18.66c-.12-1-1-1.24-1.58-1.82Zm4.93-3.72c.17-.23.3-.63.54-.71,1.44-.48.24-.89,0-1.43.41,1-.43.57-.71.67l.29.58-1.7-.31-.06.21ZM346.59,362c0-1.48,1.35-1.84,2.08-2.6l-1.91.8-.29,1-.64-.49-.22.93Zm-16.52-8.3c-.58-.7-1.07-1.32-1.61-1.88a1.13,1.13,0,0,0-.74-.2.51.51,0,0,0-.39.32.62.62,0,0,0,.27.43C328.37,352.81,329.16,353.22,330.07,353.71Zm16,6c-1.19-1.25.45-1,.6-1.57l-1.11-1-.19,0,.38,1.07-.2-.11-.48,1.61Zm-10.51,4.59-.9-.31a1.75,1.75,0,0,0,.57-.26c.13-.13.15-.37.23-.56-.19-.05-.42-.2-.54-.14a8.26,8.26,0,0,0-1,.65l.77,1.38Zm6.34-.28,1.71.42v-1.53l-1.65.12.88.53Zm-15-32,.74,1.65c.23.54.56.69,1.11.17l-1-.75.75-.41Zm11.45,30.31a10,10,0,0,0,.9.73,3.81,3.81,0,0,0,.69.27c.08-.25.29-.57.21-.72a1.09,1.09,0,0,0-.72-.41A4.62,4.62,0,0,0,338.33,362.32Zm-10.53-27.8c-.18.09-.64.17-.66.32a9,9,0,0,0,0,1.65l.63-.5-.06,1.16.43,0a13.23,13.23,0,0,1-.34-1.38A7.54,7.54,0,0,1,327.8,334.52Zm2.53,24.22-.62,1,.12.09.69-.49.1.87.86-1.35Zm17.42-31c-.88-.84.3-1.35.21-2.24l-1.39,2Zm-19.9,1.61.17.13.87-.63-.29-1.07-.93.38.66.27ZM339,364.24l-1,.92c1.22-.56,0,.95.73.86l.5-1.44Zm-10.48-39.4-1.73.68C327.51,326.16,327.74,326.1,328.52,324.84Zm19.08,21.35c1.17.64,1.18-.68,1.89-.61l-.14-.29Zm-.32,5.94,1.61.28C348.41,351.67,348,351.34,347.28,352.13Zm-4-5.85.05.12a10,10,0,0,0,1.76-.38c.14,0,.09-.59.11-.9,0,0-.1,0-.21-.08v.61Z" transform="translate(-233.45 -294.82)" style="fill:#1e1e1c"/><path d="M402.33,308.12h10.95c1.3,0,1.73.42,1.74,1.68q0,1.33,0,2.67c0,1.2-.63,1.76-1.85,1.76q-3.14,0-6.27,0a1.52,1.52,0,0,0-1.63,1.67c0,2.37,0,4.74,0,7.12,0,2.75,0,5.51,0,8.26,0,4.37,0,8.73,0,13.1,0,1.6.09,3.2.1,4.8s-.06,3.16-.07,4.74c0,2.68,0,5.36,0,8.05a27.67,27.67,0,0,1,0,2.88A1.41,1.41,0,0,1,403.8,366c-1,0-2,0-2.95,0a1.61,1.61,0,0,1-1.59-1.55c0-2.43-.15-4.88.06-7.29.06-.79-.07-1.52-.06-2.27,0-4.86.08-9.71.08-14.56,0-3.19-.12-6.38-.12-9.57,0-4.77.06-9.55.08-14.33,0-2-.29-2.25-2.25-2.25h-5.61c-1.37,0-2-.62-2-2q0-1.14,0-2.28c0-1.31.54-1.85,1.83-1.85ZM401,355.37l-.3,1.4.29.58,1.2.37.23-.84h.25l.13,1.12.81-.24c-.77-.59,0-.86.2-1.2l-1.79-.53-.29.76h-.22Zm1.84,5-1.65-1.72v1.78h.29l-.08-.72.27,0,.15,1.09.42-.18.13.73a10.14,10.14,0,0,0,1.07-.87c0-.05-.17-.37-.37-.78Zm-.32-13.17.62-1.69a1.58,1.58,0,0,0-.51.56c-.13.2-.22.42-.38.73l-.15-.94c-.43,1.31-.17,1.73,1,2l.08.8.6-1-.41-.73Zm-.77,14.32a16.31,16.31,0,0,0-.15,1.89c0,.12.57.36.59.33.25-.32,1-.55.26-1.14A4.48,4.48,0,0,1,401.78,361.56Zm1.32-30.13c-.77-.45-.9-.34-1.43,1.4h-.6l0,.22,1.52-.17C401.59,331.72,403.35,332.16,403.1,331.43ZM402,321.38c0-1.18.48-.78,1-.14l.24-1.72C402.17,319.75,401.71,320.38,402,321.38Zm.18,22.63-1,1.67c.68.12.68.12,1.63-1.67Zm.59,5.06c-.5.22-.81.38-1.13.49a2,2,0,0,1-.55,0c0,.2,0,.48.12.58a.93.93,0,0,0,.61.07c.12,0,.22-.16.34-.18s.58,0,.59,0A7.9,7.9,0,0,0,402.81,349.07Zm.14-8.65-.95-.87-.5.42.5,1.24Zm-1.1,12.85c.3-1.12-.75-.31-1-.63l-.37.32c.13.11.25.28.39.3A8.06,8.06,0,0,0,401.85,353.27Z" transform="translate(-233.45 -294.82)" style="fill:#1e1e1c"/><path d="M574.63,337.05c0-5.52,0-11,0-16.56-.06-8.08,6.82-14.05,15.08-13a13.06,13.06,0,0,1,11,12.64v11.71c0,1.46-.65,2.08-2.09,2-.85,0-1.71,0-2.57,0-1.24,0-1.68-.47-1.69-1.77,0-3.49,0-7,0-10.47a17.62,17.62,0,0,0-.58-4.09c-.57-2.14-3.5-4.08-5.71-4.26-4.34-.35-7.63,3.5-7.54,7.46.18,7.58.06,15.16,0,22.74,0,3.57-.1,7.14,0,10.72a6.52,6.52,0,0,0,5.79,6.29,6.64,6.64,0,0,0,7-3.09,9.28,9.28,0,0,0,1.07-5.24c0-.79-.05-1.58,0-2.37a1.28,1.28,0,0,0-1.17-1.47,11,11,0,0,0-2.07-.08,1.65,1.65,0,0,1-1.94-1.68c0-.89,0-1.78,0-2.66a1.67,1.67,0,0,1,1.84-1.81l7.71,0c1.52,0,2,.48,2,2,0,3.33.05,6.66,0,10a11.94,11.94,0,0,1-5.29,10.09,16.8,16.8,0,0,1-4.56,2.23,15.71,15.71,0,0,1-4,.18,11.37,11.37,0,0,1-1.65,0,11,11,0,0,1-5.43-2.5,11.78,11.78,0,0,1-4.24-5.58,14.26,14.26,0,0,1-.84-4.22C574.58,348.6,574.63,342.82,574.63,337.05ZM595.12,362l-.7.35-.38-1-1.21-.72c.15.36.21.77.35.8.6.12.62.41.42.88a.4.4,0,0,0,.19.34c.43.08.87.12,1.39.18,0,0,0,.13.07.25l.6-.48-.75-.68h.82l1-1.82-.69-.13-.35,1.19-.69-.47C595.18,361.22,595.15,361.61,595.12,362ZM578,340.87l.61.06-1-1.07c.17-.22.27-.47.46-.59s.39,0,.59,0v-.18l-.67-.18c1.16-.85,1.2-1.09.33-2l-.56,1.56-.55-.52a7.64,7.64,0,0,1-.22,1.88c-.24.64-.29,1.13.19,1.35.19-.71.19-.71.84-.31l-1.19,1c-.19.07-.15.31-.21.53a1.91,1.91,0,0,1-.3.48l1-.1-.36.69,1.49.34.31-1.09-.27-.1L578,343l-.15-.12.64-.91L578,342Zm.49,18.74,1-2.88-.88,0-.37-.52v1.51l-.58-.95-.32.09.3,1.32-.51.92.21.14.66-.56v2c1-.15,1.51.47,1.86,1.47l.3-.93.42,1.16.33-1.21,1.74-.36c-.66-.43-1.55.39-1.81-.64a3.32,3.32,0,0,1-.8.71c-.11,0-.42-.33-.63-.52Zm.06-14.57.64-.8L579,344l-1,.66-.51-.58L577,347l-.79-.59c-.45.49-.37.84.27.89a1.32,1.32,0,0,1,1.3,1.32,4.3,4.3,0,0,0,0,.72c.07.2.28.36.57.7-.1-.91-.16-1.47-.22-2l.84-.6L577.3,347c1.61-.3,1.93-.68,1.45-1.59l.86-.15,0-.23Zm4.66,16.38a6.82,6.82,0,0,0-1.74.53c-.18.12,0,.78,0,1.25l.49-.58.77.59-1,1,.27.26,1.21-1.35-1-.69,1.61-.31c.56-.59.1-1.08-.61-1.62Zm9.05,3.88.06-.24-.64-.79,1.36.15V363l-1.56.11,0,.17.69.23a2.37,2.37,0,0,0-.48.4c-.26.36-.47.76-.79,1.29Zm-14.74-10.81c-.11.29-.18.65-.26.66-.94,0,0,.86-.49,1.09.15.15.28.36.46.44s.29-.16.41-.27.37-.41.41-.45c.13-.45.22-.71.28-1s.11-.62.16-.93l-.25,0-.16.88ZM597.73,358l1.34-1.17-.63-.92c.22.85-.46.6-.8.63l.26.61-1.66-.35-.08.16Zm-21.31-10.06-.24,0a7.51,7.51,0,0,0,0,.95,6.26,6.26,0,0,0,.22.89l-.34.47.06.25,1.45-.27Zm.14,4.12,2.81,1.73c-.33-.55-.79-1-1.14-1.45S577.41,351.36,576.56,352Zm19.55,6.18-1.17-1.1-.2.1.46,1c-.85.05-.68.76-.6,1.37,0,.09.39.14.9.31C594.46,358.61,595.75,358.71,596.11,358.22Zm-18.24-24.06.21-.33-1-.68.79-.46-1.47-.54-.19.33C577.22,332.59,576.56,334.38,577.87,334.16Zm7.28,30a3,3,0,0,1-.79.15c-.12,0-.21-.19-.31-.3a3.59,3.59,0,0,1,.36-.32c.13-.07.33-.06.41-.16a.45.45,0,0,0-.05-.39,1,1,0,0,0-.57,0,10.34,10.34,0,0,0-.89.57l.77,1.39Zm13.39-10.61c.8-1.1-.4-1.25-.76-1.76-.11-.16-.7,0-1.06.05v.37l1.94.31-.85.69Zm-10.73,8.88a7.68,7.68,0,0,0,.84.74,1,1,0,0,0,.72.15c.12,0,.25-.47.17-.62a.91.91,0,0,0-.62-.45A4.33,4.33,0,0,0,587.81,362.42Zm-1.2,1.53.42.15.42-1.32c-.4,0-.8-.08-1.21-.09,0,0-.08.25-.13.39l.67,0Zm10.59-36.17c-1-.84.31-1.37.16-2.24L596,327.47Zm-9.32,37.44.18.94c-.26-.66,1.18-1.24.3-1.85l-.75.88Zm-11.59-39.69,0,.39,1.63-.23-.27-.7Zm1.45,2.91-.45,1,.16.09.82-.61L578,327.8l-.88.39Zm-.55,6.12-.76.44c.46.2-.22,1.28.76,1.08Zm2.36,24.25.61,1.23.73-1.16Z" transform="translate(-233.45 -294.82)" style="fill:#1e1e1c"/><path d="M483.46,308.16h3.43c1.08,0,1.51.32,1.7,1.38.81,4.65,1.58,9.3,2.38,13.95.65,3.81,1.33,7.61,2,11.42,1,6.15,2.05,12.3,3.1,18.45.48,2.87,1,5.73,1.51,8.59.14.81.26,1.63.36,2.44a1.47,1.47,0,0,1-1.47,1.72c-1.11.05-2.23.06-3.33,0a1.72,1.72,0,0,1-1.57-1.66c-.49-2.74-.9-5.5-1.36-8.24-.35-2.09-.7-4.18-1.1-6.27-.25-1.35-1-1.79-2.39-1.7s-2.7,0-4.05,0c-1.11,0-2.22,0-3.32.08a1.46,1.46,0,0,0-1.48,1.24c-.45,2.39-.93,4.77-1.35,7.17-.29,1.67-.5,3.36-.78,5a23.34,23.34,0,0,1-.72,3.34,1.71,1.71,0,0,1-1.13.95,13.92,13.92,0,0,1-2.66,0c-.15,0-.3-.09-.45-.07-1.39.14-2.08-.58-1.85-1.9.38-2.13.72-4.28,1.09-6.42.51-2.87,1-5.73,1.53-8.6s.94-5.61,1.42-8.41l1.68-9.8q1-5.91,2-11.8c.52-3.09,1-6.18,1.53-9.28a1.61,1.61,0,0,1,1.85-1.59Zm-10.15,47.71c.23-.32.45-.65.69-1,.11-.15.25-.29.38-.44l-.67-.22.23-1.75-.4,0-.15,1.3a2.35,2.35,0,0,1-.11.71,11.84,11.84,0,0,0-.59,1c-.2.64.07.77.61.4l-.11.76-.67-.2.7,1.73c.19-.25.34-.5.54-.72A1,1,0,0,0,473.31,355.87Zm12.21-10.6-.71.79.41.93c.24-.55-.1-1.35,1.06-1.15l-.07-.31-.71-.24-.5-2-1,1.51-.16-1-.42.65.82,2.6.2-.09-.13-1.58.25.25Zm7.82,18.07a1.31,1.31,0,0,0-.64,1.3c0,.13.28.23.62.49v-1.78l1.11.24,0,.19,1-.36.11.59.74-.54a6.86,6.86,0,0,0-.88-.8c-.08-.06-.33.11-.5.18,0,0,0,0,0,.08l-.24,0,0-.8-1.28-.61-.14.48-.95-.45C492.67,362.3,493,362.82,493.34,363.34ZM473,359.44c.54.76.77-.06,1.06-.25s.33-.52.49-.79l-.23-.13-.87.37.15.23-.62.59-.57-.35.67-.35-.71-.63.23-.74a1.56,1.56,0,0,0-.51-.09c-.5.09-1.49,1.8-1.44,2.32a3.83,3.83,0,0,1-.24,1.07l.79-.19.15,1.26h-.27l-.19-.65c-.13.1-.38.24-.36.31.16.75.37,1.48.57,2.24l.39,0-.32.73.87.32-.38.64.25.13.72-1.38c.32.47.66,1,1,.07.79.37.61-.54,1.11-.67l-1.1-.87.93-.65-.09-.13L474,362l1.23-2-.91-.58-.07.79-1.22-.06Zm13.17-17c1.14,0,1.93-.71,1.78-1.7q-.94-6.35-1.91-12.67c-.4-2.63-.81-5.25-1.25-7.87-.11-.69-.5-1.3-1.29-1.29a1.44,1.44,0,0,0-1.52,1.3l-2.07,13.57c-.33,2.23-.57,4.47-1,6.67-.15.7-.13,1.16.44,1.48a3.42,3.42,0,0,0,1.47.49C482.62,342.48,484.41,342.44,486.2,342.44ZM492.35,358c.88.66.89.75.06,1.25.68.16.39,1.45,1.5,1l.14,1.43,1.48-1.3-.2-.05.37-1.09-.39-.89-.91.53-.18-.27.52-.61-.69-.78v2.28l-.26,0-1.06-2.08.81-.28-.78-.72Zm-4.46-14.11c.2.54.36,1,.54,1.46.05.1.19.16.29.24.07-.1.2-.18.22-.29a2.94,2.94,0,0,0-.05-.55c1.14.41.11,1.19.46,1.77,1-1.29-.48-2.23-.5-3.35l-.15.82Zm4.33,11-.09.3-1.08.77a3,3,0,0,0,.41.26,3.28,3.28,0,0,0,.54.08l-.31.81c.68-.09.95-.28.59-.92-.1-.18,0-.47,0-.71l.3,0,.23.82.7-.46Zm.2-.57.56-.45a8.64,8.64,0,0,1-.41-1.27c-.13-.9-.67-1.44-1.34-1.27C492.61,352,491.94,353.36,492.42,354.35Zm-17.66-17.87a5,5,0,0,0,1.09.44c.11,0,.4-.33.4-.51a6.66,6.66,0,0,0-.3-1.2Zm5.12,9.31.13.2c.13-.16.33-.3.39-.48.19-.61.31-1.23,1.2-1.05.18,0,.41-.17.82-.35h-1.76Zm-4.47-5.24-.3,1.28,1.71-.4ZM476.7,342l-.08-.15-2,1.08.07.2h.92Zm.92-4.13-1.94-.56-.08.33.84.08-.23.9Zm-2.74,6.94-.33-.3,1,.33.23-1.33-.27-.21Zm17.38-.84-1-.75.4,1.91Zm-13.52,0-.29.19.81,1.45.41-.62Z" transform="translate(-233.45 -294.82)" style="fill:#1e1e1c"/><path d="M451.2,366.88a13.17,13.17,0,0,1-6.81-1.49,10.32,10.32,0,0,1-4.84-4.66c-.89-1.94-1.61-4-2.33-6-.4-1.14,0-1.94,1.16-2.16a15.93,15.93,0,0,1,3.59-.15,1.29,1.29,0,0,1,.83.87,11.29,11.29,0,0,0,3.61,6.82,6.51,6.51,0,0,0,4.13,1.48c3.86.11,7.3-4,7.39-7.5.14-5.23-2.41-8.88-6.18-12-.87-.72-1.65-1.56-2.47-2.34-1.87-1.79-3.89-3.45-5.56-5.4-2.28-2.67-4.71-5.34-5.42-9-.75-3.92-.86-7.79,1-11.52a10.87,10.87,0,0,1,7.5-6.05,15.06,15.06,0,0,1,8.72.36c4.23,1.48,6.6,4.65,7.64,8.89a1.25,1.25,0,0,1-1.07,1.7c-1,.24-2.05.44-3.08.59a1.32,1.32,0,0,1-1.48-.94c-.37-.87-.71-1.75-1.15-2.59a6.34,6.34,0,0,0-11.72,1.21A12.76,12.76,0,0,0,446,327.49c2,3.54,5.14,6,8.16,8.56a32.46,32.46,0,0,1,7.74,9.27c2.75,5.11,3.09,10.2.31,15.31C459.83,365,456.4,366.88,451.2,366.88Zm-4.52-34.06-.3-.22c-.16.33-.53.71-.46,1,.31,1.41,1.31,1.91,2.76,1.75a8,8,0,0,1-1,.53c-.2.13-.3.39-.45.59a5.63,5.63,0,0,0,.81-.47,6.21,6.21,0,0,1,1.09-.21l-.6-1.1.82.18,0-.11.84.45.11-.21c-.36-.28-.94-.85-1-.78-.81.61-1.58-.09-2.37,0-.64.09-.87-.42-.52-1A3.91,3.91,0,0,1,446.68,332.82Zm10.46,29.09,1.34-.11c0-1,.91-2.23-.57-3.06A2.62,2.62,0,0,1,457.14,361.91ZM447.61,364l.8-.26.13.79,1-.91c-.42-.31-.75-.71-1.15-.81C447.47,362.61,448,363.64,447.61,364Zm-3.21-2.94-1.7-.66.56,2Zm17.12-9.55h.37l-.06-1.11a9.59,9.59,0,0,0-1.5.55c-.09,0,.09.6.17.91a2.25,2.25,0,0,0,.23.43l.23-.09-.22-.83.66-.47ZM442.1,359.9l.38-.55.3.57,1.15-.93-2.83-.16Zm18.79-2.65.25-1.38-.3-.06-.25.86-.59-1.46-.4,1.13Zm-20.42-30.39-.18.11,1.26,1.76.8-.34Zm4.06,5,.85.77-.23-1.84c-.55.46-1,.78-1.34,1.14-.06.06.05.29.11.59ZM440,359.16l.45-1.64c-1.37.77-.56,1.54-.52,2.52l.93-.81Zm19.82-12.24c.21-1.32.21-1.32-1.29-1.53Zm.46,14.23a3.4,3.4,0,0,0-.29-.67,3.84,3.84,0,0,0-.46-.44,7.73,7.73,0,0,0-.47,1.17c0,.17.19.39.29.59l.2-.11-.24-.54Zm-.46-3.51,2,1.25-.32-.94.72-.31Zm-11.58,7.86c0-.54-1-1.29-1.69-1.27l.5,1.06ZM451,338.44l.28-.1,1.13,1.23.29-.28-1.47-1.83Zm3.82,22.78-.14.09c.22.24.67.56.62.73-.29,1,.39.8,1,.92a4.14,4.14,0,0,0-.48-1A4.59,4.59,0,0,0,454.79,361.22Zm-14.65-5.85.81-.49c-.31-1.35-.35-1.4-1-1l.83.61-1.1.45Zm-.82,2.33,1.14-.61-.5-1.56Zm5.25,5.73.05.92.73-1.49-.48-.54-.87,1.22Zm5.63-.91a2.54,2.54,0,0,1,.11.7c0,.17-.21.32-.34.49l.63.21C451.69,363.12,450.61,362.9,450.2,362.52Zm11.13-8.06c-.72-.22-1.24-.38-1.73.23H461l-.25.7.27.1Z" transform="translate(-233.45 -294.82)" style="fill:#1e1e1c"/><path d="M537.12,365.81a5.33,5.33,0,0,1-1,.31c-.56.05-1.14,0-1.71,0a1.69,1.69,0,0,1-1.94-1.83c0-1.74,0-3.49,0-5.23a2.22,2.22,0,0,1,.2-.71q1.56-3.9,3.14-7.78c1.08-2.67,2.19-5.32,3.25-8,1.2-3,2.35-6,3.55-9q3.38-8.47,6.78-16.95a1.66,1.66,0,0,0-1.57-2.46c-3.24,0-6.48,0-9.72.05-1.36,0-2.72,0-4.08,0a1.63,1.63,0,0,1-1.55-1.62q0-1.38,0-2.76a1.54,1.54,0,0,1,1.73-1.67h20.3c1.21,0,1.72.5,1.74,1.73,0,1.62,0,3.24,0,4.86a5,5,0,0,1-.3,1.67c-2.06,5.21-4.16,10.41-6.23,15.62-1.31,3.3-2.58,6.61-3.9,9.9-1.84,4.61-3.71,9.22-5.57,13.82-.33.82-.69,1.62-1,2.43s.65,2.08,1.52,2.07c3.28,0,6.56,0,9.84-.06,1.23,0,2.45-.06,3.68-.07,1.54,0,2,.45,2,2,0,.79,0,1.59,0,2.38a1.43,1.43,0,0,1-1.49,1.65c-1,0-2,0-3,0-4.55,0-9.09,0-13.63,0A3.79,3.79,0,0,1,537.12,365.81Zm-1.91-4.46c-.4-.39-.64-.09-1,.16-.78.63,0,1.24-.13,1.94l1.21-.82.24.17-.43,1.24a11.37,11.37,0,0,1,1-1,2.48,2.48,0,0,1,.74-.5,1.42,1.42,0,0,0,.89-1.91l1,.41.3-.25a1.46,1.46,0,0,1-1.29-1.84c.11-.63-1-1.74.77-1.73-.29-1.09.46-2.06.25-3.21l1.24-1.34h-1.64l-.21-.76c-.48.14-1.2.14-1.4.46-.47.74-.33,1.83-1.26,2.36-.06,0-.07.27,0,.34.58.7-.19.79-.45,1.2l-.35-.74-.33.13c.23.52.33,1.17.71,1.51.72.62.23.81-.19,1.23l2-.77.16-.84.29.07c-.17.77-.34,1.54-.49,2.18l-2-.31a1.47,1.47,0,0,1,.36,2.17C535.12,361,535.2,361.19,535.21,361.35Zm8.57.63-.37.61-.42-1.32c-.8.93-1.89,1.45-1.78,2.75l.77-.11.31.88,1-1.84c.34.43.65.92.73.89a14.52,14.52,0,0,0,1.52-.9Zm1.68,1.17-.07.28.58.11,0,.17-.91.38.24.75,1-1.09-.15.82a2.37,2.37,0,0,1,.81-.21c1.38.17,1.48.12,2-1.31-.81.32-1.73-.12-2.26.47Zm-6.28-.36c-.42-.09-.88-.33-1.25-.23s-.44.58-.64.86l.56.38-1.2,1.18h1.68Zm14.43,1.55c-.39-.62-.72-1.13-1.05-1.63h-.78C551.69,364,551.69,364,553.61,364.34Zm-3.12-.8-1.88-2.46-.23.16c.2.33.42.65.61,1a5.14,5.14,0,0,1,.78,2.09h.15ZM542,365.08,540.29,364l-.12.21.64,1.25Zm-2.53-17.49c-.07.39-.11.7-.17,1s-.09.51-.13.77c.22,0,.57.17.63.09a1.18,1.18,0,0,0,.28-.83A4.44,4.44,0,0,0,539.51,347.59Zm1.79-3.13-1.12.23-.06.31c1.28-.23,1.11.73,1.33,1.42C542.33,345.64,541.11,345.11,541.3,344.46Zm-.94,18.36-.29-.13c-.93.74-1,.92-.33,1.42Z" transform="translate(-233.45 -294.82)" style="fill:#1e1e1c"/><path d="M519.26,362.89h-.74v-.29l.63-.17.05-.2-.8-.15-1.63-1-.17.6-.49-.92-.71,1.38c-.51-.5-.71-1.64-1.89-1.23l.14.72.84-.24-.11,1.25L513,361.35l-.52,1.78-.43-.81-.8,1.26.26-.64-1.16-.69,1.14-.16.37-1.45-.76.3-.15-.3a3.52,3.52,0,0,1,1.08-.44c2,0,3.94.06,5.9.07,2.18,0,4.36,0,6.54,0,1.31,0,1.84.54,1.85,1.83,0,.8,0,1.59,0,2.38a1.64,1.64,0,0,1-1.61,1.65H505.83a1.46,1.46,0,0,1-1.61-1.5c0-2.72,0-5.44,0-8.25l.84.12c-.1-.21-.16-.43-.22-.43-.65,0-.64-.43-.63-.9.05-1.83.1-3.66.12-5.49,0-.55-.11-1.09-.11-1.64q0-18.88,0-37.78c0-1.66.42-2.08,2.08-2.08h2.09c1.51,0,1.88.36,1.88,1.85v46.53a10.75,10.75,0,0,1-.13,1.2l-2.19-.39-.06.29.85.16-.13.68c.2-.09.37-.22.52-.21.35,0,.95.06,1,.24a10.85,10.85,0,0,1,.54,2.65c0,.29-.5.62-.77.93l-.26-.4c-.64.19-.64.19-.65,1.59l.55-.7.68.65-1,.88.19.27.9-.43-.52.84.78.3c.12,0,.24.06.37.09a.93.93,0,0,1-.05-.29c0-.25.06-.5.09-.75l.71.66,1.45-.2v.09l1.48-.39.85-1.65,2.29,1.67.15-1c.48-.5,1.2.66,1.35-.47.23.29,1.07.66.46.89s-.55,1-1,1.37l1.22.17.07-.23-.7-.82,1.19.14c.12-.57.23-1.08.33-1.51ZM507.51,358l0,0-.17-.82,1.27-1.24c-.29-.64-1.21-1-.27-1.79l.16.77,1-.54c-1.29-.41-.07-1.06-.3-1.7-.25.1-.48.26-.68.23a3,3,0,0,1-.82-.37h.49l-.87-.8.18-.17,1.32.57-.7-1.29-.48-.11.55-1.55c-.6.24-1.08.3-1.33.57a13,13,0,0,0-1.13,1.69l.37.71-.89-.4v3.93l1.85.37-.75.79-.27-.56-.16,0-.14,1.2-.55-.66c.34,1.27,1,2.46.32,3.69l1.18.46-.91.84.11.2,1.44-.38c-.14.73-.23,1.43-.41,2.11s.38,1,.8,1a.74.74,0,0,0,.77-1l-1.06-.06a5.13,5.13,0,0,1,2.78-3c-1.43,0-1.43,0-1.47-.55h1.19Zm-2.2-12,0,.24h1.88l-1-.94,1.25-.13,0-.33-1.1.08-.12-.2,1.07-.55c-.26-.69-.19-1.26.78-1.41l-.55.69.19.17,1.1-1.26c-1.06.09-.1-.79-.57-1.25l-.44,1.2a1.41,1.41,0,0,1,0-1.95l-.45-.84-.42.2c.05.78.15,1.57.13,2.35,0,.55,0,1.41-.36,1.59-.95.54-.67,1.28-.61,2Zm16.91,16-.86-.5a1.8,1.8,0,0,0-.2.57c0,.19.1.51.22.55a1.21,1.21,0,0,1,1,.81,4.54,4.54,0,0,0,.9.92l.26-1,.73.31c-.13-.7-.25-1.28-.38-2l-.25.76-1.24-.77Zm-15.81-12.65c.34-.15.61-.19.73-.35.77-1-.85-1.13-.63-1.94l-1.35.34.38,1.32.59-1a7.36,7.36,0,0,1,.42,1C506.59,348.93,506.49,349.12,506.41,349.46Zm1.15-11,0-.21.54-.43-.2-.27a3.59,3.59,0,0,0-.78.66,2.75,2.75,0,0,0-.24.85,2.61,2.61,0,0,1,.77.09,2.4,2.4,0,0,1,.59.52c-.89-.88,1-.76.55-1.31Zm.62,7.39.52-.4-.17-.23-1.22.76.15.24,1.56.23.09-.33Zm13,17.93-.29.17.8,1.41.93-.75C521.65,365.12,521.67,364,521.14,363.79Zm-12.76-32c.06-.85.1-1.46.15-2.18l-.87.93Zm-2.28,5.28-.47,1.69,1.3-1.16Zm2.22-3.08.76-.49-.14-.27-1.24.47.53,1.09.21-.07Zm6.58,31,.2.22,1.5-.57c-.42-.16-.76-.41-1-.35S515.12,364.8,514.9,365.05Z" transform="translate(-233.45 -294.82)" style="fill:#1e1e1c"/><path d="M568.48,337.3v26.93c0,1.59-.57,2.09-2.16,2a18.88,18.88,0,0,0-2,0c-1.27,0-1.9-.53-1.9-1.77V310.31c0-1.67.41-2.09,2.05-2.09h1.81c1.83,0,2.19.36,2.19,2.15Zm-3.36,20.79-.53.12.24,1.17.12-.11.67.79c-.47-.1-.84-.11-1.11.46-.12.26-.63.32-1,.47l.37.77.62-.17.23,1.06-.67-.34-.2.15.44.8.17-.11-.1,1,.31.12,1-1.59a4.2,4.2,0,0,0,.78.51,3,3,0,0,0,.86.08,2.31,2.31,0,0,0-.31-.77.83.83,0,0,0-.69-.17.78.78,0,0,1-1-.75c-.05-.5-.42-1.12.25-1.52l.42-.85v1.12l.74-.69-1.17-1.47.58.13.09-.19-.85-.56c.23-.17.42-.32.61-.45l.7-.42c-.42-.23-.79-.45-1.18-.63-.06,0-.31.17-.32.27C565.15,356.9,565.14,357.49,565.12,358.09Zm-1-8.62a6.38,6.38,0,0,1,.58.93c-.77.63,0,1,.21,1.49-1.46,0,.35,1.1-.44,1.38l1.33.25-1.53.69c.88.85-.75,1.62-.62,2.17a4.51,4.51,0,0,0,1.25-.75c.58-.61.92-.6,1.2.45l1.24-1.58c-.28,0-.46,0-.64-.05s-.61-.15-.92-.22a3.9,3.9,0,0,0,.59-.71,1.71,1.71,0,0,0,.19-1,3.54,3.54,0,0,0-.48-1l-.78.57-.18-.14.47-2,.36.07v1.13l.29,0c.08-.66.16-1.32.27-2.21C565.7,349.84,564.94,350,564.11,349.47Zm1.64-3.44-.74-.46,1.08-.29c-.16-.13-.35-.39-.49-.37a9,9,0,0,0-1.3.38l-.17-.71-.58.48,1,1-.36.64Zm1.1,2.7c-.56-.76-1.61-.71-2.34.42a8.12,8.12,0,0,0,1.21-.07A11.52,11.52,0,0,0,566.85,348.73Zm-.34-6.39h-1.45l.73,1.71.42-.1C566.15,343.36,565.39,342.76,566.51,342.34Zm-3-.71c1.62.22,1.66.19,1.31-1Zm.58-1.6.13.3,1.93-.47,0-.24h-1.84ZM567,360c1.33-.22.37-1.29,1-1.69l-.35-.14Zm-1.79,5.3a3.68,3.68,0,0,0,.93-.1c.15-.06.22-.33.36-.56C566,364.06,565.94,364.06,565.18,365.31Z" transform="translate(-233.45 -294.82)" style="fill:#1e1e1c"/><path d="M512.93,363.55l.53,1-1.75-.55.08-.25Z" transform="translate(-233.45 -294.82)" style="fill:#1e1e1c"/><path d="M536.35,360.27l.18,1,.67-.06-1.32,1.43-1.52-.34-.06-.18.86-.38s0-.2,0-.41l.9.32-.23-1.47Z" transform="translate(-233.45 -294.82)" style="fill:#1e1e1c"/><path d="M536.61,355.23v-.82l1,.11c-.37.56-1.38,1,.1,1.51l-.38.2-1.6-1Z" transform="translate(-233.45 -294.82)" style="fill:#1e1e1c"/><path d="M507.7,352.62c-.31.15-.62.27-.18.65.11.1.07.36.11.54l-.28.09-.78-1.38-.45.17.11-1.46c.42,0,.95-.26.8.66,0,.2.43.49.67.74Z" transform="translate(-233.45 -294.82)" style="fill:#1e1e1c"/><path d="M507.64,359.48l0,.48,1.07-.49.08.23a4.16,4.16,0,0,1-.54.63c-.27.24-.72.66-.86.59a.72.72,0,0,1-.19-1.19,2.06,2.06,0,0,0,.21-.42Z" transform="translate(-233.45 -294.82)" style="fill:#1e1e1c"/><path d="M507.51,358l.15.26-1.34,1.6-.31-.18c.3-.71.61-1.41.93-2.13l.61.49Z" transform="translate(-233.45 -294.82)" style="fill:#1e1e1c"/><path d="M271.19,303.45c.56-.09.71.26.86.73-.11.41-.31.81-.84.85a.81.81,0,0,1-.91-.78C270.22,303.59,270.69,303.52,271.19,303.45Z" transform="translate(-233.45 -294.82)" style="fill:#1e1e1c"/><path d="M234.28,313.71a9.23,9.23,0,0,0,7.34,4.18,57.11,57.11,0,0,0,8.84.3c1.82-.24,11.27-3.24,13.25-3.31l1.16,0,0,.13-.06.89c0,.31,0,.61,0,.91v.36c-5.26,2.77-14.44,7.69-15.5,8.8-1.5,1.56-6.3,3.1-8.47,6.32s.22,5.29,1.29,5.63,2.07-.16,3.14-.24,1.4.84,3.81-.71,10.62-7.3,12.8-12.33a16.62,16.62,0,0,1,3.58-5.57c.74,6.89,1.16,13.92,2,20.75.6,4.71,1.22,9.43,1.93,14.34l-5.66,12.52a15,15,0,0,0,4.4-1.91c1.39-.69,2.51-.89,3.86.11a28,28,0,0,0,4,2c-2-4.53-3.56-8.73-5.17-13.15.49-2.16.87-4.32,1.31-6.42.21-1,.39-1.93.59-2.89a1.92,1.92,0,0,1-.55-.12c-.21-.09-.29-.46-.47-.78.57-.62.71-.75,1.2,0,.13-.65.27-1.3.39-1.94l-.45-.8a5.57,5.57,0,0,1-1.1.67,4.76,4.76,0,0,1-1.2.07,3.26,3.26,0,0,1,.47-1.05,1.2,1.2,0,0,1,.95-.2,1.08,1.08,0,0,0,1.45-1c.09-.68.61-1.51-.27-2.09H273l.05-.05-.53-1.17-.05,1.54-1-1,1.67-2-.81.15-.1-.25c.38-.25.77-.49,1.18-.74-.31-.25-.55-.46-.82-.65s-.56-.36-1-.61c.59-.3,1.12-.59,1.67-.82.08,0,.41.25.41.39,0,.82,0,1.65,0,2.47l.72.18c-.15.6-.26,1.11-.38,1.62l-.16-.17-.92,1v0s0,0,0,0a1.36,1.36,0,0,1,1,.09q.52-2.74,1-5.52a3.12,3.12,0,0,1-.85-.64c-.78-.87-1.25-.87-1.67.56l-1.65-2.23a6.93,6.93,0,0,0,.88,0c.43-.07.85-.18,1.28-.27a4.58,4.58,0,0,1-.78-1,2.4,2.4,0,0,1-.22-1.36,4.92,4.92,0,0,1,.71-1.29l1,.83.26-.19c-.19-.94-.37-1.87-.56-2.81l-.5.08-.05,1.56h-.4l-.28-3.06c1.08,1.19,2.11,1.49,3.27.74a10.24,10.24,0,0,0-.83,1.26c1,.9-.09,1.36-.36,2.05,2,.1-.52,1.5.56,1.93l-1.85.27,2.08,1c-.67.61-.35,1.21.06,1.76q1-5.55,1.84-11.15a17.24,17.24,0,0,1,3.15,5.24c2.12,5.05,10.27,10.89,12.65,12.47s2.73.68,3.81.77,2.06.59,3.14.26,3.48-2.37,1.35-5.61-6.91-4.83-8.39-6.42c-1-1.09-9.8-5.94-15.07-8.8-.05-.9-.11-1.8-.19-2.7l1.21,0c2,.1,11.39,3.21,13.2,3.46a56.72,56.72,0,0,0,8.85-.19,9.21,9.21,0,0,0,7.38-4.08c1.59-2.15.86-4.05-1.12-5.64s-5.13.14-7.36.79a10.15,10.15,0,0,1-3.32.64c-2.56.32-13,2.73-15,3.21a14.21,14.21,0,0,1-4,.21c-.13-1.17-.29-2.33-.52-3.49a36.22,36.22,0,0,0-5.67-14.49c-.15-.22-.33-.41-.54-.67-3,5.86-4.41,12.11-5.44,18.48a14.86,14.86,0,0,1-4.08-.25c-2-.51-12.39-3.05-14.95-3.4a9.75,9.75,0,0,1-3.3-.68c-2.23-.68-5.36-2.43-7.35-.87S232.73,311.55,234.28,313.71Zm41.62-4.06-.19.41-2.64-.72.07-.34,2.54.08Zm-3.36,3.09,2,.06c-.37.81-.7,1.51-1.08,2.33l-.59-.15C273,314.16,274.06,313.37,272.54,312.74Zm4.1-.84c-2.24.22-2.3.19-1.77-1.5Zm-1.51,6.1.48.9-2.19-1,1.05-.61-1.48-.44c.23-.17.5-.53.69-.49a11.5,11.5,0,0,1,1.78.58c.08-.32.16-.59.26-1l.78.7Zm-3.34,3.54c.81-1,2.26-.91,3.21.68a11.75,11.75,0,0,1-1.67-.14A13.94,13.94,0,0,1,271.79,321.54Zm-1.93,13.19.49-.19.79,2.56C269.31,336.74,270.68,335.31,269.86,334.73Zm-.73-30.46a2.68,2.68,0,0,1,2-2.39c.8-.05,2.08,1.38,2.09,2.31a2.1,2.1,0,0,1-2,2A1.85,1.85,0,0,1,269.13,304.27Z" transform="translate(-233.45 -294.82)" style="fill:#1e1e1c"/></svg>